<svg width="32" height="32" viewBox="0 0 32 32" fill="none" xmlns="http://www.w3.org/2000/svg">
<path d="M15.3334 5.33335C14.0957 5.33335 12.9087 5.82502 12.0335 6.70019C11.1584 7.57536 10.6667 8.76234 10.6667 10C10.6667 11.2377 11.1584 12.4247 12.0335 13.2999C12.9087 14.175 14.0957 14.6667 15.3334 14.6667C16.571 14.6667 17.758 14.175 18.6332 13.2999C19.5084 12.4247 20 11.2377 20 10C20 8.76234 19.5084 7.57536 18.6332 6.70019C17.758 5.82502 16.571 5.33335 15.3334 5.33335ZM8.00002 10C8.00002 8.0551 8.77264 6.18984 10.1479 4.81457C11.5232 3.4393 13.3884 2.66669 15.3334 2.66669C17.2783 2.66669 19.1435 3.4393 20.5188 4.81457C21.8941 6.18984 22.6667 8.0551 22.6667 10C22.6667 11.9449 21.8941 13.8102 20.5188 15.1855C19.1435 16.5607 17.2783 17.3334 15.3334 17.3334C13.3884 17.3334 11.5232 16.5607 10.1479 15.1855C8.77264 13.8102 8.00002 11.9449 8.00002 10ZM25.3334 17.3334V22.6667H30.6667V25.3334H25.3334V30.6667H22.6667V25.3334H17.3334V22.6667H22.6667V17.3334H25.3334ZM10.6667 21.3334C9.2522 21.3334 7.89564 21.8953 6.89545 22.8955C5.89526 23.8956 5.33335 25.2522 5.33335 26.6667H16.0667V29.3334H2.66669V26.6667C2.66669 24.545 3.50954 22.5101 5.00983 21.0098C6.51012 19.5095 8.54496 18.6667 10.6667 18.6667H16V21.3334H10.6667Z" fill="#9695AA"/>
</svg>
