<svg width="32" height="32" viewBox="0 0 32 32" fill="none" xmlns="http://www.w3.org/2000/svg">
<mask id="path-1-inside-1_2_48" fill="96965aa">
<path d="M16 5.33331H26.6667V13.3333H16V5.33331ZM16 28V14.6666H26.6667V28H16ZM4 28V20H14.6667V28H4ZM4 18.6666V5.33331H14.6667V18.6666H4ZM5.33333 6.66665V17.3333H13.3333V6.66665H5.33333ZM17.3333 6.66665V12H25.3333V6.66665H17.3333ZM17.3333 16V26.6666H25.3333V16H17.3333ZM5.33333 21.3333V26.6666H13.3333V21.3333H5.33333Z"/>
</mask>
<path d="M16 5.33331H26.6667V13.3333H16V5.33331ZM16 28V14.6666H26.6667V28H16ZM4 28V20H14.6667V28H4ZM4 18.6666V5.33331H14.6667V18.6666H4ZM5.33333 6.66665V17.3333H13.3333V6.66665H5.33333ZM17.3333 6.66665V12H25.3333V6.66665H17.3333ZM17.3333 16V26.6666H25.3333V16H17.3333ZM5.33333 21.3333V26.6666H13.3333V21.3333H5.33333Z" fill="#9695aa"/>
<path d="M16 5.33331V3.33331H14V5.33331H16ZM26.6667 5.33331H28.6667V3.33331H26.6667V5.33331ZM26.6667 13.3333V15.3333H28.6667V13.3333H26.6667ZM16 13.3333H14V15.3333H16V13.3333ZM16 28H14V30H16V28ZM16 14.6666V12.6666H14V14.6666H16ZM26.6667 14.6666H28.6667V12.6666H26.6667V14.6666ZM26.6667 28V30H28.6667V28H26.6667ZM4 28H2V30H4V28ZM4 20V18H2V20H4ZM14.6667 20H16.6667V18H14.6667V20ZM14.6667 28V30H16.6667V28H14.6667ZM4 18.6666H2V20.6666H4V18.6666ZM4 5.33331V3.33331H2V5.33331H4ZM14.6667 5.33331H16.6667V3.33331H14.6667V5.33331ZM14.6667 18.6666V20.6666H16.6667V18.6666H14.6667ZM5.33333 6.66665V4.66665H3.33333V6.66665H5.33333ZM5.33333 17.3333H3.33333V19.3333H5.33333V17.3333ZM13.3333 17.3333V19.3333H15.3333V17.3333H13.3333ZM13.3333 6.66665H15.3333V4.66665H13.3333V6.66665ZM17.3333 6.66665V4.66665H15.3333V6.66665H17.3333ZM17.3333 12H15.3333V14H17.3333V12ZM25.3333 12V14H27.3333V12H25.3333ZM25.3333 6.66665H27.3333V4.66665H25.3333V6.66665ZM17.3333 16V14H15.3333V16H17.3333ZM17.3333 26.6666H15.3333V28.6666H17.3333V26.6666ZM25.3333 26.6666V28.6666H27.3333V26.6666H25.3333ZM25.3333 16H27.3333V14H25.3333V16ZM5.33333 21.3333V19.3333H3.33333V21.3333H5.33333ZM5.33333 26.6666H3.33333V28.6666H5.33333V26.6666ZM13.3333 26.6666V28.6666H15.3333V26.6666H13.3333ZM13.3333 21.3333H15.3333V19.3333H13.3333V21.3333ZM16 7.33331H26.6667V3.33331H16V7.33331ZM24.6667 5.33331V13.3333H28.6667V5.33331H24.6667ZM26.6667 11.3333H16V15.3333H26.6667V11.3333ZM18 13.3333V5.33331H14V13.3333H18ZM18 28V14.6666H14V28H18ZM16 16.6666H26.6667V12.6666H16V16.6666ZM24.6667 14.6666V28H28.6667V14.6666H24.6667ZM26.6667 26H16V30H26.6667V26ZM6 28V20H2V28H6ZM4 22H14.6667V18H4V22ZM12.6667 20V28H16.6667V20H12.6667ZM14.6667 26H4V30H14.6667V26ZM6 18.6666V5.33331H2V18.6666H6ZM4 7.33331H14.6667V3.33331H4V7.33331ZM12.6667 5.33331V18.6666H16.6667V5.33331H12.6667ZM14.6667 16.6666H4V20.6666H14.6667V16.6666ZM3.33333 6.66665V17.3333H7.33333V6.66665H3.33333ZM5.33333 19.3333H13.3333V15.3333H5.33333V19.3333ZM15.3333 17.3333V6.66665H11.3333V17.3333H15.3333ZM13.3333 4.66665H5.33333V8.66665H13.3333V4.66665ZM15.3333 6.66665V12H19.3333V6.66665H15.3333ZM17.3333 14H25.3333V9.99998H17.3333V14ZM27.3333 12V6.66665H23.3333V12H27.3333ZM25.3333 4.66665H17.3333V8.66665H25.3333V4.66665ZM15.3333 16V26.6666H19.3333V16H15.3333ZM17.3333 28.6666H25.3333V24.6666H17.3333V28.6666ZM27.3333 26.6666V16H23.3333V26.6666H27.3333ZM25.3333 14H17.3333V18H25.3333V14ZM3.33333 21.3333V26.6666H7.33333V21.3333H3.33333ZM5.33333 28.6666H13.3333V24.6666H5.33333V28.6666ZM15.3333 26.6666V21.3333H11.3333V26.6666H15.3333ZM13.3333 19.3333H5.33333V23.3333H13.3333V19.3333Z" fill="#9695aa" mask="url(#path-1-inside-1_2_48)"/>
</svg>
