<svg width="32" height="32" viewBox="0 0 32 32" fill="none" xmlns="http://www.w3.org/2000/svg">
<g clip-path="url(#clip0_2_50)">
<path d="M21.7143 12.5715V8.00003M1.14288 25.1429L6.72917 29.7966C7.55036 30.4814 8.58562 30.8567 9.65488 30.8572H24.3817C25.4332 30.8572 26.2857 30.0046 26.2857 28.9532C26.2857 26.8503 24.5806 25.1429 22.4755 25.1429H12.2377M21.7143 19.4286C24.1391 19.4286 26.4647 18.4653 28.1793 16.7507C29.8939 15.0361 30.8572 12.7106 30.8572 10.2857C30.8572 7.8609 29.8939 5.53538 28.1793 3.82076C26.4647 2.10615 24.1391 1.14288 21.7143 1.14288C19.2895 1.14288 16.964 2.10615 15.2493 3.82076C13.5347 5.53538 12.5715 7.8609 12.5715 10.2857C12.5715 12.7106 13.5347 15.0361 15.2493 16.7507C16.964 18.4653 19.2895 19.4286 21.7143 19.4286Z" stroke="#9695AA" stroke-width="2" stroke-linecap="round" stroke-linejoin="round"/>
<path d="M8.00003 22.8572L9.71431 24.5715C10.169 25.0261 10.7856 25.2815 11.4286 25.2815C12.0716 25.2815 12.6882 25.0261 13.1429 24.5715C13.5975 24.1168 13.853 23.5002 13.853 22.8572C13.853 22.2142 13.5975 21.5975 13.1429 21.1429L10.4823 18.4823C9.6252 17.6249 8.46263 17.1431 7.25031 17.1429H1.14288" stroke="#9695AA" stroke-width="2" stroke-linecap="round" stroke-linejoin="round"/>
</g>
<defs>
<clipPath id="clip0_2_50">
<rect width="32" height="32" fill="white"/>
</clipPath>
</defs>
</svg>
