<svg width="32" height="32" viewBox="0 0 32 32" fill="none" xmlns="http://www.w3.org/2000/svg">
<path d="M14.6667 19.3333C14.6667 21.1733 17.652 22.6666 21.3333 22.6666C25.0147 22.6666 28 21.1733 28 19.3333M4 12.6666C4 14.5066 6.98533 16 10.6667 16C12.168 16 13.5533 15.752 14.6667 15.3333M4 17.3333C4 19.1733 6.98533 20.6666 10.6667 20.6666C12.168 20.6666 13.552 20.4186 14.6667 20M21.3333 17.3333C17.652 17.3333 14.6667 15.84 14.6667 14C14.6667 12.16 17.652 10.6666 21.3333 10.6666C25.0147 10.6666 28 12.16 28 14C28 15.84 25.0147 17.3333 21.3333 17.3333Z" stroke="#9695AA" stroke-width="1.5" stroke-linecap="round" stroke-linejoin="round"/>
<path d="M4 7.33337V22C4 23.84 6.98533 25.3334 10.6667 25.3334C12.168 25.3334 13.552 25.0854 14.6667 24.6667M14.6667 24.6667V14M14.6667 24.6667C14.6667 26.5067 17.652 28 21.3333 28C25.0147 28 28 26.5067 28 24.6667V14M17.3333 11.3334V7.33337" stroke="#9695AA" stroke-width="1.5" stroke-linecap="round" stroke-linejoin="round"/>
<path d="M10.6667 10.6667C6.98533 10.6667 4 9.17333 4 7.33333C4 5.49333 6.98533 4 10.6667 4C14.348 4 17.3333 5.49333 17.3333 7.33333C17.3333 9.17333 14.348 10.6667 10.6667 10.6667Z" stroke="#9695AA" stroke-width="1.5" stroke-linecap="round" stroke-linejoin="round"/>
</svg>
