<svg width="32" height="32" viewBox="0 0 32 32" fill="none" xmlns="http://www.w3.org/2000/svg">
<path d="M10.6666 6.66663H7.99998C7.29274 6.66663 6.61446 6.94758 6.11436 7.44767C5.61426 7.94777 5.33331 8.62605 5.33331 9.33329V25.3333C5.33331 26.0405 5.61426 26.7188 6.11436 27.2189C6.61446 27.719 7.29274 28 7.99998 28H15.596M24 18.6666V24H29.3333M24 14.6666V9.33329C24 8.62605 23.719 7.94777 23.2189 7.44767C22.7188 6.94758 22.0406 6.66663 21.3333 6.66663H18.6666" stroke="#9695AA" stroke-width="2" stroke-linecap="round" stroke-linejoin="round"/>
<path d="M10.6666 14.6667H16M10.6666 20H14.6666M10.6666 6.66667C10.6666 5.95942 10.9476 5.28115 11.4477 4.78105C11.9478 4.28095 12.626 4 13.3333 4H16C16.7072 4 17.3855 4.28095 17.8856 4.78105C18.3857 5.28115 18.6666 5.95942 18.6666 6.66667C18.6666 7.37391 18.3857 8.05219 17.8856 8.55229C17.3855 9.05238 16.7072 9.33333 16 9.33333H13.3333C12.626 9.33333 11.9478 9.05238 11.4477 8.55229C10.9476 8.05219 10.6666 7.37391 10.6666 6.66667ZM18.6666 24C18.6666 25.4145 19.2285 26.771 20.2287 27.7712C21.2289 28.7714 22.5855 29.3333 24 29.3333C25.4144 29.3333 26.771 28.7714 27.7712 27.7712C28.7714 26.771 29.3333 25.4145 29.3333 24C29.3333 22.5855 28.7714 21.229 27.7712 20.2288C26.771 19.2286 25.4144 18.6667 24 18.6667C22.5855 18.6667 21.2289 19.2286 20.2287 20.2288C19.2285 21.229 18.6666 22.5855 18.6666 24Z" stroke="#9695AA" stroke-width="2" stroke-linecap="round" stroke-linejoin="round"/>
</svg>
